<svg width="802" height="834" viewBox="0 0 802 834" fill="none" xmlns="http://www.w3.org/2000/svg">
<g id="undraw_working_late_re_0c3y 1" clip-path="url(#clip0_1_2)">
<g id="sky">
<path id="Vector" d="M802 432.54C802.091 488.398 790.453 543.653 767.84 594.73C766.89 596.87 765.93 599 764.94 601.12C764.8 601.45 764.64 601.78 764.49 602.11C764.11 602.92 763.73 603.74 763.34 604.55C763.06 605.14 762.78 605.72 762.49 606.31C761.8 607.75 761.1 609.183 760.39 610.61C759.61 612.18 758.82 613.747 758.02 615.31C757.22 616.87 756.41 618.427 755.59 619.98C754.87 621.33 754.147 622.677 753.42 624.02C752.48 625.75 751.524 627.48 750.55 629.21C749.71 630.69 748.867 632.16 748.02 633.62C747.11 635.18 746.19 636.74 745.26 638.3L745.17 638.45C744.97 638.79 744.77 639.13 744.56 639.47C744.37 639.78 744.19 640.08 744 640.39C743.81 640.7 743.63 641 743.44 641.3V641.31C742.83 642.31 742.22 643.29 741.61 644.28L741.6 644.29C740.23 646.49 738.83 648.68 737.42 650.85C734.8 654.89 732.11 658.87 729.35 662.79C729.35 662.8 729.34 662.8 729.33 662.81C727.68 665.17 725.99 667.51 724.29 669.83C723.2 671.31 722.1 672.783 720.99 674.25C719.88 675.72 718.76 677.176 717.63 678.62C717.38 678.95 717.12 679.28 716.86 679.61C715.42 681.45 713.96 683.29 712.48 685.1C712.16 685.5 711.84 685.89 711.53 686.28C711.04 686.87 710.56 687.46 710.08 688.04C709.92 688.24 709.76 688.43 709.59 688.63C708.77 689.61 707.95 690.59 707.11 691.57V691.58C706.3 692.54 705.48 693.5 704.65 694.46C704.47 694.67 704.29 694.88 704.1 695.09C703.83 695.41 703.55 695.72 703.27 696.04C702.58 696.85 701.87 697.65 701.15 698.45C701.14 698.46 701.14 698.47 701.13 698.48L701.1 698.51V698.52C679.602 722.774 655.249 744.337 628.57 762.74C628.481 762.809 628.387 762.872 628.29 762.93C627.96 763.17 627.63 763.39 627.3 763.62C624.91 765.26 622.5 766.88 620.07 768.46C618.88 769.24 617.69 770.01 616.49 770.77V770.78C616.48 770.78 616.48 770.78 616.47 770.79H616.45L616.43 770.81L616.37 770.84C616.34 770.86 616.32 770.87 616.29 770.89C615.37 771.48 614.46 772.06 613.53 772.64C613.25 772.83 612.97 773 612.69 773.17C612.2 773.48 611.7 773.79 611.2 774.1C610.71 774.4 610.21 774.71 609.71 775.01C609.08 775.39 608.45 775.78 607.82 776.15C606.45 776.98 605.077 777.8 603.7 778.61C603.2 778.91 602.69 779.2 602.18 779.5C601.68 779.79 601.17 780.08 600.66 780.37C600.654 780.38 600.645 780.389 600.634 780.396C600.624 780.403 600.612 780.408 600.6 780.41L600.58 780.42L600.56 780.44H600.55C599.15 781.24 597.76 782.04 596.35 782.82L596.34 782.83C595.21 783.46 594.08 784.08 592.94 784.7C590.24 786.17 587.524 787.613 584.79 789.03C582.89 790.02 580.98 790.98 579.06 791.93C577.9 792.51 576.73 793.08 575.56 793.65C574.59 794.12 573.61 794.59 572.64 795.05C572.37 795.18 572.11 795.31 571.84 795.43C571.4 795.64 570.95 795.85 570.51 796.05C570.14 796.22 569.78 796.39 569.41 796.56C568.53 796.98 567.64 797.38 566.76 797.78C565.77 798.23 564.79 798.67 563.8 799.11C560.08 800.77 556.32 802.37 552.55 803.91C539.082 809.425 525.318 814.185 511.32 818.17C510.67 818.36 510.01 818.55 509.35 818.73C503.36 820.41 497.327 821.946 491.25 823.34C480.64 825.78 469.933 827.783 459.13 829.35C459.11 829.35 459.08 829.36 459.06 829.36C457.77 829.55 456.47 829.73 455.18 829.91C455.07 829.93 454.95 829.95 454.83 829.96C454.82 829.97 454.81 829.97 454.79 829.96H454.78C453.35 830.15 451.92 830.34 450.48 830.52C450.38 830.54 450.28 830.55 450.18 830.56C448.84 830.72 447.49 830.88 446.14 831.03C444.69 831.19 443.24 831.34 441.78 831.49H441.77C439.55 831.71 437.33 831.92 435.11 832.1C435.07 832.1 435.03 832.11 434.99 832.11C434.11 832.19 433.23 832.25 432.35 832.32H432.34C421.99 833.14 411.544 833.546 401 833.54C389.55 833.54 378.217 833.063 367 832.11C366.96 832.11 366.92 832.1 366.88 832.1C364.49 831.9 362.104 831.68 359.72 831.44C359.09 831.38 358.47 831.31 357.84 831.25C357.72 831.24 357.6 831.23 357.48 831.21C357.29 831.19 357.1 831.17 356.9 831.15C356.8 831.14 356.69 831.13 356.59 831.11C355.76 831.02 354.93 830.93 354.09 830.83C353.16 830.72 352.22 830.61 351.29 830.49C350.36 830.38 349.42 830.26 348.49 830.13C348.29 830.11 348.08 830.09 347.88 830.05C347.2 829.97 346.52 829.88 345.85 829.78C345.52 829.74 345.2 829.69 344.88 829.64C344.23 829.55 343.59 829.46 342.94 829.36C342.92 829.36 342.89 829.35 342.87 829.35C322.45 826.401 302.291 821.857 282.58 815.76H282.57C281.5 815.43 280.43 815.09 279.36 814.75C279.04 814.66 278.72 814.56 278.4 814.45C275.62 813.56 272.857 812.64 270.11 811.69C266.32 810.39 262.557 809.03 258.82 807.61C257.8 807.22 256.79 806.83 255.77 806.44C253.74 805.64 251.72 804.84 249.71 804.02C246.28 802.62 242.874 801.177 239.49 799.69H239.48V799.68C236.81 798.5 234.15 797.3 231.51 796.05C231.03 795.83 230.55 795.61 230.07 795.38C229.978 795.353 229.891 795.312 229.81 795.26C229.8 795.26 229.8 795.25 229.79 795.25C229.1 794.93 228.41 794.6 227.72 794.27L227.7 794.26C224.17 792.57 220.67 790.827 217.2 789.03C212.9 786.81 208.637 784.51 204.41 782.13C200.91 780.16 197.444 778.137 194.01 776.06C189.94 773.6 185.914 771.067 181.93 768.46C180.69 767.65 179.45 766.83 178.21 766C177.09 765.25 175.98 764.5 174.87 763.74C170.95 761.06 167.08 758.31 163.26 755.49C159.31 752.58 155.417 749.596 151.58 746.54C146.58 742.56 141.68 738.466 136.88 734.26C127.93 726.44 119.347 718.227 111.13 709.62C110.87 709.35 110.61 709.08 110.35 708.8C109.53 707.94 108.72 707.08 107.91 706.21C106.73 704.95 105.56 703.67 104.4 702.39C102.48 700.3 100.594 698.187 98.7403 696.05H98.7302V696.04C97.6003 694.75 96.5002 693.47 95.3802 692.17V692.16C95.2202 691.98 95.0703 691.8 94.9202 691.62C94.2102 690.79 93.5203 689.97 92.8303 689.13V689.12C91.8903 688.01 90.9702 686.9 90.0703 685.78C89.8702 685.54 89.6802 685.31 89.4903 685.07H89.4802V685.06C88.7402 684.16 88.0102 683.25 87.2903 682.34C86.9202 681.89 86.5603 681.43 86.2002 680.97H86.1902V680.96C84.0103 678.21 81.8736 675.433 79.7803 672.63V672.62C79.2002 671.85 78.6303 671.08 78.0703 670.3H78.0603C75.3802 666.68 72.7702 663.017 70.2302 659.31V659.3C69.2703 657.91 68.3203 656.51 67.3802 655.1C66.4402 653.69 65.5102 652.277 64.5903 650.86H64.5803C63.6302 649.4 62.6902 647.933 61.7603 646.46C61.7103 646.38 61.6603 646.31 61.6203 646.24C60.7002 644.79 59.7936 643.33 58.9003 641.86C58.1802 640.69 57.4703 639.53 56.7803 638.36C56.3003 637.57 55.8302 636.79 55.3703 635.99C55.2003 635.72 55.0503 635.45 54.9002 635.19C53.8403 633.38 52.8003 631.57 51.7603 629.75C50.5503 627.61 49.3503 625.45 48.1802 623.29C47.7002 622.4 47.2202 621.5 46.7502 620.6C46.5803 620.31 46.4302 620.02 46.2802 619.72C45.7202 618.66 45.1602 617.6 44.6102 616.53C44.0603 615.47 43.5102 614.4 42.9702 613.33C42.4302 612.26 41.8902 611.19 41.3602 610.11C40.9602 609.3 40.5603 608.48 40.1701 607.67C40.1297 607.602 40.093 607.532 40.0603 607.46C39.8802 607.08 39.6902 606.71 39.5203 606.33C39.4803 606.272 39.4499 606.208 39.4302 606.14C39.0203 605.3 38.6202 604.47 38.2302 603.63C37.7102 602.55 37.2102 601.46 36.7102 600.37C36.3502 599.61 36.0102 598.84 35.6603 598.07C35.1603 596.99 34.6702 595.9 34.1902 594.8C33.6802 593.67 33.1902 592.53 32.7002 591.39C32.5703 591.1 32.4502 590.82 32.3303 590.53C32.1002 590.01 31.8802 589.49 31.6603 588.97C31.0703 587.59 30.4903 586.19 29.9202 584.8C29.2703 583.23 28.637 581.657 28.0203 580.08C27.4302 578.61 26.8569 577.137 26.3003 575.66L26.0903 575.12V575.11C17.4013 552.274 10.827 528.688 6.45014 504.65V504.64C3.9545 490.915 2.17874 477.07 1.13014 463.16C1.0702 462.4 1.02015 461.64 0.970148 460.88C0.310235 451.47 -0.0130998 442.023 0.000146866 432.54C0.000146866 428.33 0.0668105 424.14 0.200144 419.97C2.79301 332.789 33.8707 248.856 88.6801 181.01C91.0903 178.02 93.5437 175.067 96.0402 172.15C98.7802 168.95 101.567 165.793 104.4 162.68C106.36 160.52 108.344 158.387 110.35 156.28C110.388 156.237 110.428 156.197 110.47 156.16C110.68 155.93 110.9 155.7 111.13 155.47C123.37 142.651 136.449 130.662 150.28 119.58C151.86 118.3 153.44 117.05 155.04 115.82C156.46 114.71 157.88 113.61 159.31 112.54C160.97 111.28 162.64 110.036 164.32 108.81C173.07 102.4 182.08 96.3465 191.35 90.6498C195.22 88.2699 199.134 85.9566 203.09 83.7099C204.53 82.8798 205.99 82.0698 207.45 81.2597C209.43 80.1698 211.41 79.0898 213.41 78.0397C272.842 46.6438 339.204 30.6679 406.413 31.5764C473.622 32.4849 539.528 50.2487 598.09 83.2396C598.37 83.3898 598.65 83.5497 598.92 83.7099C600.64 84.6898 602.35 85.6699 604.05 86.6799C606.27 87.9799 608.474 89.3032 610.66 90.6499C621.7 97.4399 632.38 104.737 642.7 112.54C644.3 113.75 645.9 114.97 647.48 116.21C648.91 117.32 650.33 118.45 651.74 119.58C652.51 120.2 653.29 120.83 654.06 121.46C670.946 135.208 686.687 150.304 701.13 166.6L701.15 166.62C701.37 166.87 701.59 167.11 701.8 167.36C702.49 168.14 703.18 168.93 703.86 169.71C703.95 169.81 704.04 169.92 704.13 170.02C705.13 171.17 706.124 172.33 707.11 173.5C719.132 187.692 730.156 202.702 740.1 218.42C743.8 224.24 747.34 230.166 750.72 236.2C784.446 296.135 802.11 363.768 802 432.54Z" fill="#3F3D56"/>
<path id="Vector_2" d="M683.109 24.6824L707.109 674.371V674.383C706.299 675.501 705.479 676.619 704.649 677.737C704.199 678.354 703.739 678.96 703.269 679.577C702.579 680.52 701.869 681.452 701.149 682.384C701.139 682.395 701.14 682.407 701.13 682.419L701.099 682.454V682.465C680.05 710.25 655.694 735.366 628.569 757.259V757.515L628.289 757.48C627.959 757.76 627.63 758.016 627.299 758.284C624.909 760.194 622.499 762.081 620.069 763.921C618.879 764.829 617.686 765.726 616.49 766.611V766.623C616.479 766.623 616.479 766.623 616.469 766.635H616.449L616.43 766.658L616.37 766.693C616.34 766.716 616.319 766.728 616.289 766.751C615.369 767.438 614.459 768.114 613.529 768.789C613.249 769.01 612.969 769.208 612.69 769.406C612.2 769.767 611.699 770.129 611.199 770.49C610.709 770.839 610.209 771.2 609.709 771.549C607.719 772.97 605.709 774.368 603.699 775.742C603.199 776.091 602.69 776.429 602.18 776.779C601.68 777.116 601.169 777.454 600.659 777.792V777.827L600.599 777.838L600.579 777.85L600.56 777.873H600.549C599.15 778.805 597.759 779.737 596.349 780.645L596.339 780.657C595.209 781.391 594.08 782.113 592.94 782.835C590.24 784.547 587.52 786.236 584.789 787.878C582.889 789.031 580.98 790.149 579.06 791.255C577.9 791.931 576.73 792.595 575.56 793.258C574.59 793.806 573.609 794.353 572.639 794.889C572.369 795.04 572.109 795.192 571.839 795.331C571.399 795.576 570.949 795.821 570.509 796.054H231.509C231.029 795.797 230.549 795.541 230.069 795.273C229.976 795.241 229.888 795.193 229.809 795.133C229.799 795.133 229.799 795.122 229.789 795.122C229.099 794.749 228.409 794.365 227.719 793.98L227.699 793.969C224.169 792.001 220.669 789.97 217.199 787.878C209.329 783.149 201.599 778.114 194.009 772.772C189.939 769.907 185.913 766.957 181.929 763.921C180.689 762.977 179.449 762.022 178.209 761.056C177.089 760.182 175.979 759.309 174.869 758.424C170.949 755.302 167.079 752.1 163.259 748.815C159.309 745.426 155.416 741.952 151.579 738.392C146.579 733.756 141.679 728.989 136.879 724.09C127.929 714.982 119.346 705.417 111.129 695.393C110.869 695.078 110.609 694.764 110.349 694.438C108.34 691.98 106.356 689.492 104.399 686.973L124.399 24.6824C124.381 20.6602 125.117 16.6702 126.569 12.9193C129.609 5.2328 135.539 0.00354004 142.349 0.00354004H665.159C672.06 0.00354004 678.049 5.36104 681.049 13.2105C681.149 13.467 681.239 13.7232 681.329 13.9794C682.522 17.4213 683.124 21.0399 683.109 24.6824Z" fill="#3F3D56"/>
</g>
<path id="moon" d="M190.609 75.0768C205.521 75.0768 217.609 60.9982 217.609 43.6313C217.609 26.2644 205.521 12.1857 190.609 12.1857C175.698 12.1857 163.609 26.2644 163.609 43.6313C163.609 60.9982 175.698 75.0768 190.609 75.0768Z" fill="white"/>
<g id="cloud">
<path id="Vector_3" d="M476.605 127.908C431.086 139.881 380.65 147.165 329.367 149.159C321.851 149.569 314.317 149.517 306.808 149.006C290.305 147.618 276.169 142.431 260.426 139.597C252.858 138.238 244.428 137.244 236.808 135.776C238.569 133.592 240.361 131.434 242.185 129.303C258.615 130.691 275.3 135.235 291.927 137.346C320.191 140.941 351.86 136.93 373.286 127.039C383.682 122.239 391.645 116.249 402.003 111.427C403.412 110.704 404.939 110.236 406.511 110.047C409.791 109.747 412.669 111.069 415.014 112.253C432.394 121.026 457.626 128.156 481.047 124.233C482.793 125.6 479.476 127.156 476.605 127.908Z" fill="white"/>
<path id="Vector_4" d="M659.713 261.201C646.323 262.271 632.863 263.068 619.333 263.591C609.045 264.147 598.733 264.077 588.453 263.381C565.863 261.471 546.513 254.381 524.963 250.501C505.213 246.951 481.213 245.241 468.673 237.361C501.083 231.751 534.663 243.171 568.083 247.421C595.116 250.745 622.52 249.392 649.093 243.421C652.793 249.241 656.333 255.168 659.713 261.201Z" fill="white"/>
</g>
<g id="window">
<g id="window_2">
<path id="Vector_5" d="M680.127 83.7072H127.375V90.6474H680.127V83.7072Z" fill="#2F2E41"/>
<path id="Vector_6" d="M687.74 169.707H121.74V176.647H687.74V169.707Z" fill="#2F2E41"/>
<path id="Vector_7" d="M213.409 304.38H207.45L227.45 3.11603H233.409L213.409 304.38Z" fill="#2F2E41"/>
<path id="Vector_8" d="M604.052 306.38H598.093L574.093 3.11603H580.052L604.052 306.38Z" fill="#2F2E41"/>
<path id="Vector_9" d="M690.74 296.256H122.74V316.12H690.74V296.256Z" fill="#2F2E41"/>
</g>
<path id="Vector_10" d="M407.765 285.297H413.724C415.158 285.297 416.579 285.58 417.904 286.129C419.23 286.678 420.434 287.483 421.449 288.497C422.463 289.511 423.268 290.716 423.817 292.041C424.366 293.367 424.648 294.787 424.648 296.222H396.84C396.84 293.325 397.991 290.546 400.04 288.497C402.088 286.448 404.867 285.297 407.765 285.297Z" fill="#2F2E41"/>
</g>
<g id="star">
<path id="Vector_11" d="M467.793 237.506C468.086 237.453 468.38 237.411 468.673 237.36C467.441 236.597 466.281 235.723 465.208 234.75L467.793 237.506Z" fill="white"/>
<path id="Vector_12" d="M257.609 54.1132C258.714 54.1132 259.609 53.0703 259.609 51.7839C259.609 50.4975 258.714 49.4546 257.609 49.4546C256.505 49.4546 255.609 50.4975 255.609 51.7839C255.609 53.0703 256.505 54.1132 257.609 54.1132Z" fill="white"/>
<path id="Vector_13" d="M379.127 57.0019C380.232 57.0019 381.127 55.959 381.127 54.6726C381.127 53.3861 380.232 52.3433 379.127 52.3433C378.023 52.3433 377.127 53.3861 377.127 54.6726C377.127 55.959 378.023 57.0019 379.127 57.0019Z" fill="white"/>
<path id="Vector_14" d="M454.127 59.3311C455.232 59.3311 456.127 58.2883 456.127 57.0018C456.127 55.7154 455.232 54.6725 454.127 54.6725C453.023 54.6725 452.127 55.7154 452.127 57.0018C452.127 58.2883 453.023 59.3311 454.127 59.3311Z" fill="white"/>
<path id="Vector_15" d="M559.609 354.004C560.714 354.004 561.609 353.108 561.609 352.004C561.609 350.899 560.714 350.004 559.609 350.004C558.505 350.004 557.609 350.899 557.609 352.004C557.609 353.108 558.505 354.004 559.609 354.004Z" fill="white"/>
<path id="Vector_16" d="M438.127 241.484C439.232 241.484 440.127 240.588 440.127 239.484C440.127 238.379 439.232 237.484 438.127 237.484C437.023 237.484 436.127 238.379 436.127 239.484C436.127 240.588 437.023 241.484 438.127 241.484Z" fill="white"/>
<path id="Vector_17" d="M337.609 344.004C338.714 344.004 339.609 343.108 339.609 342.004C339.609 340.899 338.714 340.004 337.609 340.004C336.505 340.004 335.609 340.899 335.609 342.004C335.609 343.108 336.505 344.004 337.609 344.004Z" fill="white"/>
<path id="Vector_18" d="M320.609 239.004C321.714 239.004 322.609 238.108 322.609 237.004C322.609 235.899 321.714 235.004 320.609 235.004C319.505 235.004 318.609 235.899 318.609 237.004C318.609 238.108 319.505 239.004 320.609 239.004Z" fill="white"/>
<path id="Vector_19" d="M186.609 218.004C187.714 218.004 188.609 217.108 188.609 216.004C188.609 214.899 187.714 214.004 186.609 214.004C185.505 214.004 184.609 214.899 184.609 216.004C184.609 217.108 185.505 218.004 186.609 218.004Z" fill="white"/>
</g>
<path id="cup" d="M606.039 404.004H577.803C577.166 404.002 576.536 404.14 575.958 404.407C575.379 404.675 574.867 405.066 574.456 405.554C574.062 405.478 573.663 405.439 573.262 405.439C571.486 405.439 569.782 406.144 568.526 407.4C567.27 408.656 566.565 410.36 566.565 412.136C566.565 413.912 567.27 415.616 568.526 416.872C569.782 418.128 571.486 418.833 573.262 418.833C574.273 418.833 575.271 418.602 576.178 418.156L576.649 423.943L578.521 446.817C578.61 447.102 578.729 447.378 578.877 447.638C579.255 448.333 579.814 448.912 580.494 449.316C581.174 449.721 581.95 449.934 582.741 449.934H601.102C601.893 449.933 602.67 449.72 603.351 449.316C604.032 448.912 604.591 448.332 604.971 447.638C605.115 447.376 605.232 447.101 605.322 446.817L610.259 409.716C610.462 409.056 610.508 408.357 610.391 407.676C610.275 406.995 610.001 406.351 609.59 405.795C609.18 405.24 608.645 404.788 608.028 404.477C607.411 404.166 606.73 404.004 606.039 404.004ZM573.262 416.922C571.994 416.92 570.778 416.415 569.883 415.518C568.987 414.62 568.483 413.404 568.483 412.136C568.483 410.868 568.987 409.652 569.883 408.755C570.778 407.858 571.994 407.353 573.262 407.351C573.348 407.351 573.428 407.374 573.514 407.379C573.326 408.15 573.349 408.958 573.583 409.716L575.604 416.284C574.893 416.698 574.085 416.918 573.262 416.922Z" fill="#F2F2F2"/>
<g id="pairs">
<g id="Group" opacity="0.49">
<path id="Vector_20" d="M591.591 388.97C591.819 388.668 592.026 388.351 592.209 388.02C591.854 388.166 591.487 388.282 591.112 388.364L591.591 388.97Z" fill="white"/>
<path id="Vector_21" d="M594.173 368.569C592.373 365.123 590.353 361.698 589.631 357.877C588.908 354.05 589.543 350.117 589.764 346.229C589.984 342.34 589.708 338.184 587.459 335.004C584.39 344.718 581.35 355.421 585.275 364.821C586.978 368.899 589.88 372.371 591.75 376.375C593.459 380.03 594.151 384.587 592.209 388.02C595.376 386.74 597.358 383.111 597.481 379.615C597.618 375.729 595.973 372.016 594.173 368.569Z" fill="white"/>
</g>
<g id="Group_2" opacity="0.49">
<path id="Vector_22" d="M588.198 401.97C588.286 401.853 588.367 401.73 588.438 401.601C588.3 401.658 588.157 401.703 588.012 401.735L588.198 401.97Z" fill="white"/>
<path id="Vector_23" d="M589.201 394.044C588.412 392.754 587.818 391.354 587.436 389.89C587.27 388.385 587.287 386.866 587.488 385.365C587.685 383.852 587.37 382.316 586.592 381.004C585.4 384.778 584.219 388.936 585.744 392.588C586.405 394.172 587.533 395.521 588.259 397.077C588.636 397.766 588.848 398.533 588.879 399.318C588.91 400.103 588.759 400.884 588.438 401.601C589.049 401.3 589.564 400.836 589.926 400.259C590.287 399.682 590.481 399.016 590.486 398.336C590.433 396.819 589.991 395.341 589.201 394.044Z" fill="white"/>
</g>
</g>
<g id="cornice">
<path id="Vector_24" d="M681.33 13.98C681.24 13.7197 681.15 13.4697 681.05 13.21C678.05 5.35991 672.06 0 665.16 0H142.35C135.54 0 129.61 5.23 126.57 12.9199C125.118 16.6699 124.382 20.6588 124.4 24.6799L104.4 702.39C105.56 703.67 106.73 704.95 107.91 706.21C108.72 707.08 109.53 707.94 110.35 708.8L130.35 24.68C130.345 22.7412 130.601 20.8106 131.11 18.9399C131.112 18.9091 131.119 18.8786 131.13 18.8499C132.85 12.6299 137.23 8.19996 142.35 8.19996H665.16C666.386 8.2016 667.598 8.45696 668.72 8.94996C673.4 10.95 676.85 16.77 677.13 23.7598C677.14 24.0698 677.15 24.3699 677.15 24.6799L701.15 682.38C701.87 681.45 702.58 680.52 703.27 679.58C703.53 679.24 703.78 678.9 704.03 678.57C704.24 678.29 704.45 678.02 704.65 677.74C705.48 676.62 706.3 675.5 707.11 674.38V674.37L683.11 24.68C683.124 21.0385 682.522 17.4209 681.33 13.98ZM217.2 789.03C220.67 790.83 224.17 792.573 227.7 794.26L227.72 794.27C228.41 794.6 229.1 794.93 229.79 795.25C229.8 795.25 229.8 795.26 229.81 795.26C229.891 795.312 229.978 795.353 230.07 795.38C230.55 795.61 231.03 795.83 231.51 796.05H570.51C570.95 795.85 571.4 795.64 571.84 795.43C572.11 795.31 572.37 795.18 572.64 795.05C573.61 794.59 574.59 794.12 575.56 793.65C576.73 793.08 577.9 792.51 579.06 791.93C580.98 790.98 582.89 790.02 584.79 789.03H217.2Z" fill="#2F2E41"/>
<path id="Vector_25" d="M196.24 94.8799H133.24C131.384 94.8799 129.603 94.1424 128.29 92.8296C126.978 91.5169 126.24 89.7364 126.24 87.8799C126.24 86.0234 126.978 84.2429 128.29 82.9301C129.603 81.6174 131.384 80.8799 133.24 80.8799H196.24C198.097 80.8799 199.877 81.6174 201.19 82.9301C202.503 84.2429 203.24 86.0234 203.24 87.8799C203.24 89.7364 202.503 91.5169 201.19 92.8296C199.877 94.1424 198.097 94.8799 196.24 94.8799Z" fill="#2F2E41"/>
<path id="Vector_26" d="M736.255 14.3799H75.2548C73.3983 14.3799 71.6178 13.6424 70.3051 12.3296C68.9923 11.0169 68.2548 9.2364 68.2548 7.37988C68.2548 5.52337 68.9923 3.74289 70.3051 2.43013C71.6178 1.11738 73.3983 0.379883 75.2548 0.379883H736.255C738.111 0.379883 739.892 1.11738 741.205 2.43013C742.517 3.74289 743.255 5.52337 743.255 7.37988C743.255 9.2364 742.517 11.0169 741.205 12.3296C739.892 13.6424 738.111 14.3799 736.255 14.3799Z" fill="#2F2E41"/>
<path id="Vector_27" d="M174.24 164.88H111.24C109.384 164.88 107.603 164.142 106.29 162.83C104.978 161.517 104.24 159.736 104.24 157.88C104.24 156.023 104.978 154.243 106.29 152.93C107.603 151.617 109.384 150.88 111.24 150.88H174.24C176.097 150.88 177.877 151.617 179.19 152.93C180.503 154.243 181.24 156.023 181.24 157.88C181.24 159.736 180.503 161.517 179.19 162.83C177.877 164.142 176.097 164.88 174.24 164.88Z" fill="#2F2E41"/>
<path id="Vector_28" d="M676.24 94.8799H613.24C611.384 94.8799 609.603 94.1424 608.29 92.8296C606.978 91.5169 606.24 89.7364 606.24 87.8799C606.24 86.0234 606.978 84.2429 608.29 82.9301C609.603 81.6174 611.384 80.8799 613.24 80.8799H676.24C678.097 80.8799 679.877 81.6174 681.19 82.9301C682.503 84.2429 683.24 86.0234 683.24 87.8799C683.24 89.7364 682.503 91.5169 681.19 92.8296C679.877 94.1424 678.097 94.8799 676.24 94.8799Z" fill="#2F2E41"/>
<path id="Vector_29" d="M701.24 161.88H638.24C636.384 161.88 634.603 161.142 633.29 159.83C631.978 158.517 631.24 156.736 631.24 154.88C631.24 153.023 631.978 151.243 633.29 149.93C634.603 148.617 636.384 147.88 638.24 147.88H701.24C703.097 147.88 704.877 148.617 706.19 149.93C707.503 151.243 708.24 153.023 708.24 154.88C708.24 156.736 707.503 158.517 706.19 159.83C704.877 161.142 703.097 161.88 701.24 161.88Z" fill="#2F2E41"/>
</g>
<g id="drapes">
<path id="Vector_30" d="M205.74 765.38C196.74 774.38 197.44 778.13 194.01 776.06C189.94 773.6 185.913 771.067 181.93 768.46C180.69 767.65 179.45 766.83 178.21 766C177.09 765.25 175.98 764.5 174.87 763.74C170.95 761.06 167.08 758.31 163.26 755.49C159.31 752.58 155.417 749.597 151.58 746.54C146.58 742.56 141.68 738.466 136.88 734.26C127.93 726.44 119.347 718.227 111.13 709.62C110.87 709.35 110.61 709.08 110.35 708.8C109.53 707.94 108.72 707.08 107.91 706.21L111.98 691.51L116.98 477.26L117.28 412.7L117.3 406.74L121.74 313.38L121.77 307.42L124.35 181.55L124.37 176.65L124.41 169.71L110.47 156.16L130.77 90.65L130.8 83.71L131.11 18.94L131.13 13.65C141.72 4.0099 156.71 2.12003 175.04 3.81996C175.95 3.91004 176.88 4.00013 177.81 4.09996L178.06 8.20005L178.52 15.5099V15.5201L182.12 73.4801V73.5001L182.76 83.7101L183.19 90.6501L184.32 108.81L168.1 169.71L168.53 176.65L171.66 226.97L172.09 233.91L172.98 248.23L176.66 307.42L177.03 313.38L177.79 325.67L178.74 340.87L178.85 342.64L179.28 349.58L180.52 369.52L180.86 375.08L182.43 400.41L182.64 403.79L182.73 405.18L182.83 406.74L182.99 409.34L183.2 412.7L183.95 424.76L184.26 429.82L184.56 434.59L184.77 438.04L185.12 443.6L185.39 447.9L186.09 459.24L186.39 464.01L186.9 472.3L187.21 477.26L187.25 477.86L187.92 488.66L188.22 493.43L188.44 497.12L189.03 506.57L189.38 512.12L189.75 518.07L190.04 522.84L191.16 540.82L191.5 546.38L191.57 547.49L191.87 552.26L193.29 575.08L193.4 576.91L193.63 580.64L193.69 581.68L195.23 606.32L195.42 609.34L195.53 611.09L195.76 614.9L197.06 635.74L197.36 640.51L197.55 643.6L197.89 649.16L198.88 665.16L199.18 669.93L199.67 677.87L200.02 683.42L200.71 694.57L201.01 699.34L201.8 712.12L202.15 717.67L202.37 723.99L202.54 728.76L205.74 765.38Z" fill="#CCCCCC"/>
<path id="Vector_31" d="M704.1 695.09C703.83 695.41 703.55 695.72 703.27 696.04C702.58 696.85 701.87 697.65 701.15 698.45C701.14 698.46 701.14 698.47 701.13 698.48L701.1 698.51V698.52C679.602 722.774 655.249 744.337 628.57 762.74C628.481 762.809 628.387 762.872 628.29 762.93C627.96 763.17 627.63 763.39 627.3 763.62C624.91 765.26 622.5 766.88 620.07 768.46C618.88 769.24 617.69 770.01 616.49 770.77V770.78C616.48 770.78 616.48 770.78 616.47 770.79H616.45L616.43 770.81L616.37 770.84C616.34 770.86 616.32 770.87 616.29 770.89C615.37 771.48 614.46 772.06 613.53 772.64C613.25 772.83 612.97 773 612.69 773.17C612.2 773.48 611.7 773.79 611.2 774.1C610.71 774.4 610.21 774.71 609.71 775.01C609.08 775.39 608.45 775.78 607.82 776.15L607.86 772.85L607.92 768.46L608.21 748.28L609.21 732.16L615.14 636.75L616.08 621.65L616.29 618.25L618.96 575.32L619.87 560.58L621.94 527.38L622.87 512.28L623.78 497.69L623.82 497.12L623.9 495.76L623.95 494.93V494.92L625.01 477.98L625.05 477.26L625.8 465.28V465.26L626.87 447.9L627.55 437L628.31 424.76L628.92 414.95L629.06 412.7L629.43 406.74L629.45 406.5L631.75 369.4L632.35 359.73V359.72L632.98 349.58L633.41 342.64L634.3 328.46L635.24 313.38L635.61 307.42L636.92 286.26V286.25L637.65 274.47L638.38 262.67L639.46 245.41L640.17 233.91L640.6 226.97L643.72 176.65L643.86 174.47L644.16 169.71L645.17 153.43L623.48 116.21L625.07 90.6499L625.5 83.71L630.06 10.3899L630.2 8.19997L630.45 4.09988C650.03 1.94997 666 3.52981 677.13 13.6499L677.44 83.7099L677.47 90.6499L683.8 167.36L683.81 169.71L683.84 176.65L686.41 307.42L686.44 313.38L690.84 406.74L690.87 412.7L693.15 477.26L693.24 497.12L704.03 678.57L704.1 695.09Z" fill="#CCCCCC"/>
<path id="Vector_32" d="M620.07 768.46C618.88 769.24 617.69 770.01 616.49 770.77V770.78C616.48 770.78 616.48 770.78 616.47 770.79H616.45L616.43 770.81L616.37 770.84C616.34 770.86 616.32 770.87 616.29 770.89C615.37 771.48 614.46 772.06 613.53 772.64C613.25 772.83 612.97 773 612.69 773.17C612.2 773.48 611.7 773.79 611.2 774.1C610.71 774.4 610.21 774.71 609.71 775.01C609.08 775.39 608.45 775.78 607.82 776.15C606.45 776.98 605.077 777.8 603.7 778.61C603.2 778.91 602.69 779.2 602.18 779.5C601.68 779.79 601.17 780.08 600.66 780.37V780.4L600.6 780.41L600.58 780.42L600.56 780.44H600.55C599.15 781.24 597.76 782.04 596.35 782.82L596.34 782.83C595.21 783.46 594.08 784.08 592.94 784.7C590.24 786.17 587.524 787.613 584.79 789.03C582.89 790.02 580.98 790.98 579.06 791.93C577.9 792.51 576.73 793.08 575.56 793.65C574.59 794.12 573.61 794.59 572.64 795.05C572.37 795.18 572.11 795.31 571.84 795.43C571.4 795.64 570.95 795.85 570.51 796.05C570.14 796.22 569.78 796.39 569.41 796.56C568.53 796.98 567.64 797.38 566.76 797.78C565.77 798.23 564.79 798.67 563.8 799.11C560.08 800.77 556.32 802.37 552.55 803.91C539.082 809.425 525.318 814.185 511.32 818.17C510.67 818.36 510.01 818.55 509.35 818.73C503.36 820.41 497.327 821.946 491.25 823.34C480.64 825.78 469.933 827.783 459.13 829.35C459.11 829.35 459.08 829.36 459.06 829.36C457.77 829.55 456.47 829.73 455.18 829.91C455.07 829.93 454.95 829.95 454.83 829.96C454.82 829.97 454.81 829.97 454.79 829.96H454.78C453.35 830.15 451.92 830.34 450.48 830.52C450.38 830.54 450.28 830.55 450.18 830.56C448.84 830.72 447.49 830.88 446.14 831.03C444.69 831.19 443.24 831.34 441.78 831.49H441.77C439.55 831.71 437.33 831.92 435.11 832.1C435.07 832.1 435.03 832.11 434.99 832.11C434.11 832.19 433.23 832.25 432.35 832.32H432.34C421.99 833.14 411.544 833.546 401 833.54C389.55 833.54 378.217 833.063 367 832.11C366.96 832.11 366.92 832.1 366.88 832.1C364.49 831.9 362.104 831.68 359.72 831.44C359.09 831.38 358.47 831.31 357.84 831.25C357.72 831.24 357.6 831.23 357.48 831.21C357.29 831.19 357.1 831.17 356.9 831.15C356.8 831.14 356.69 831.13 356.59 831.11C355.76 831.02 354.93 830.93 354.09 830.83C353.16 830.72 352.22 830.61 351.29 830.49C350.36 830.38 349.42 830.26 348.49 830.13C348.29 830.11 348.08 830.09 347.88 830.05C347.2 829.97 346.52 829.88 345.85 829.78C345.52 829.74 345.2 829.69 344.88 829.64C344.23 829.55 343.59 829.46 342.94 829.36C342.92 829.36 342.89 829.35 342.87 829.35C322.45 826.401 302.291 821.857 282.58 815.76H282.57C281.5 815.43 280.43 815.09 279.36 814.75C279.04 814.66 278.72 814.56 278.4 814.45C275.62 813.56 272.857 812.64 270.11 811.69C266.32 810.39 262.557 809.03 258.82 807.61C257.8 807.22 256.79 806.83 255.77 806.44C253.74 805.64 251.72 804.84 249.71 804.02C246.28 802.62 242.874 801.177 239.49 799.69H239.48V799.68C236.81 798.5 234.15 797.3 231.51 796.05C231.03 795.83 230.55 795.61 230.07 795.38C229.978 795.353 229.891 795.312 229.81 795.26C229.8 795.26 229.8 795.25 229.79 795.25C229.1 794.93 228.41 794.6 227.72 794.27L227.7 794.26C224.17 792.57 220.67 790.827 217.2 789.03C212.9 786.81 208.637 784.51 204.41 782.13C200.91 780.16 197.444 778.137 194.01 776.06C189.94 773.6 185.914 771.067 181.93 768.46H620.07Z" fill="#2F2E41"/>
<path id="Vector_33" d="M643.74 626.353L641.741 626.407L644.741 736.33L646.74 736.275L643.74 626.353Z" fill="#B3B3B3"/>
<path id="Vector_34" d="M674.74 195.365L672.74 195.395L675.74 397.318L677.74 397.288L674.74 195.365Z" fill="#B3B3B3"/>
<path id="Vector_35" d="M136.74 186.365L134.74 186.395L137.74 388.318L139.74 388.288L136.74 186.365Z" fill="#B3B3B3"/>
<path id="Vector_36" d="M156.74 418.365L154.74 418.395L157.74 620.318L159.74 620.288L156.74 418.365Z" fill="#B3B3B3"/>
<path id="Vector_37" d="M134.74 589.353L132.741 589.407L135.741 699.33L137.74 699.275L134.74 589.353Z" fill="#B3B3B3"/>
</g>
<g id="building">
<path id="Vector_38" d="M380.8 501.86V492.28C380.798 488.621 379.398 485.1 376.885 482.438C374.373 479.777 370.938 478.177 367.284 477.965V440.556H364.104V477.923H349.794V501.774H282.215V776.063H431.683V555.633C431.682 541.865 426.408 528.619 416.945 518.618C407.482 508.617 394.548 502.62 380.8 501.86Z" fill="#2F2E41"/>
<path id="Vector_39" d="M286.34 422.06V776.06H194.01C189.94 773.6 185.913 771.067 181.93 768.46C180.69 767.65 179.45 766.83 178.21 766C177.09 765.25 175.98 764.5 174.87 763.74C170.95 761.06 167.08 758.31 163.26 755.49C159.31 752.58 155.417 749.596 151.58 746.54C146.58 742.56 141.68 738.466 136.88 734.26V368.2H163.51V325.67H190.54V285.12H193.72V325.67H213.55C217.359 325.67 221.011 327.183 223.704 329.876C226.397 332.569 227.91 336.221 227.91 340.03V368.2H232.48C244.093 368.2 255.395 371.952 264.702 378.897C274.009 385.842 280.824 395.608 284.13 406.74C284.706 408.699 285.173 410.689 285.53 412.7C286.069 415.791 286.34 418.922 286.34 422.06Z" fill="#2F2E41"/>
<path id="Vector_40" d="M533.078 659.733V655.916C533.077 654.458 532.519 653.055 531.518 651.995C530.517 650.935 529.149 650.297 527.693 650.213V635.308H526.426V650.196H520.724V659.699H493.799V768.983H553.351V681.158C553.351 675.672 551.25 670.395 547.479 666.41C543.709 662.425 538.555 660.036 533.078 659.733Z" fill="#2F2E41"/>
<path id="Vector_41" d="M473.985 606.482H472.162V595.255C472.162 593.738 471.559 592.283 470.486 591.21C469.413 590.138 467.958 589.535 466.441 589.535H458.541V573.38H457.274V589.535H446.504V606.482H435.892V768.983H495.444V627.941C495.444 625.123 494.889 622.332 493.811 619.729C492.732 617.125 491.151 614.76 489.159 612.767C487.166 610.774 484.801 609.194 482.197 608.115C479.593 607.037 476.803 606.482 473.985 606.482Z" fill="#2F2E41"/>
</g>
<g id="light-window">
<path id="Vector_42" d="M537.513 707.53H529.594V713.866H537.513V707.53Z" fill="white"/>
<path id="Vector_43" d="M537.513 723.685H529.594V730.021H537.513V723.685Z" fill="white"/>
<path id="Vector_44" d="M537.513 739.84H529.594V746.176H537.513V739.84Z" fill="white"/>
<path id="Vector_45" d="M524.525 755.995H516.606V762.331H524.525V755.995Z" fill="white"/>
<path id="Vector_46" d="M326.737 540.731H306.861V556.632H326.737V540.731Z" fill="white"/>
<path id="Vector_47" d="M359.334 540.731H339.458V556.632H359.334V540.731Z" fill="white"/>
<path id="Vector_48" d="M391.931 540.731H372.055V556.632H391.931V540.731Z" fill="white"/>
<path id="Vector_49" d="M326.737 581.278H306.861V597.179H326.737V581.278Z" fill="white"/>
<path id="Vector_50" d="M359.334 581.278H339.458V597.179H359.334V581.278Z" fill="white"/>
<path id="Vector_51" d="M391.931 581.278H372.055V597.179H391.931V581.278Z" fill="white"/>
<path id="Vector_52" d="M326.737 621.825H306.861V637.726H326.737V621.825Z" fill="white"/>
<path id="Vector_53" d="M359.334 621.825H339.458V637.726H359.334V621.825Z" fill="white"/>
<path id="Vector_54" d="M391.931 621.825H372.055V637.726H391.931V621.825Z" fill="white"/>
<path id="Vector_55" d="M326.737 662.372H306.861V678.273H326.737V662.372Z" fill="white"/>
<path id="Vector_56" d="M359.334 662.372H339.458V678.273H359.334V662.372Z" fill="white"/>
<path id="Vector_57" d="M391.931 662.372H372.055V678.273H391.931V662.372Z" fill="white"/>
<path id="Vector_58" d="M326.737 702.92H306.861V718.82H326.737V702.92Z" fill="white"/>
<path id="Vector_59" d="M359.334 702.92H339.458V718.82H359.334V702.92Z" fill="white"/>
<path id="Vector_60" d="M391.931 702.92H372.055V718.82H391.931V702.92Z" fill="white"/>
<path id="Vector_61" d="M326.737 743.467H306.861V759.367H326.737V743.467Z" fill="white"/>
<path id="Vector_62" d="M359.334 743.467H339.458V759.367H359.334V743.467Z" fill="white"/>
<path id="Vector_63" d="M391.931 743.467H372.055V759.367H391.931V743.467Z" fill="white"/>
<path id="Vector_64" d="M243.809 400.406H179.41V405.176H243.809V400.406Z" fill="white"/>
<path id="Vector_65" d="M243.809 429.823H179.41V434.593H243.809V429.823Z" fill="white"/>
<path id="Vector_66" d="M243.809 459.239H179.41V464.01H243.809V459.239Z" fill="white"/>
<path id="Vector_67" d="M243.809 488.656H179.41V493.426H243.809V488.656Z" fill="white"/>
<path id="Vector_68" d="M243.809 518.072H179.41V522.843H243.809V518.072Z" fill="white"/>
<path id="Vector_69" d="M243.809 547.489H179.41V552.259H243.809V547.489Z" fill="white"/>
<path id="Vector_70" d="M243.809 576.905H179.41V581.676H243.809V576.905Z" fill="white"/>
<path id="Vector_71" d="M243.809 606.322H179.41V611.092H243.809V606.322Z" fill="white"/>
<path id="Vector_72" d="M243.809 635.739H179.41V640.509H243.809V635.739Z" fill="white"/>
<path id="Vector_73" d="M243.809 665.155H179.41V669.925H243.809V665.155Z" fill="white"/>
<path id="Vector_74" d="M243.809 694.572H179.41V699.342H243.809V694.572Z" fill="white"/>
<path id="Vector_75" d="M243.809 723.988H179.41V728.758H243.809V723.988Z" fill="white"/>
<path id="Vector_76" d="M205.647 334.418H185.771V350.319H205.647V334.418Z" fill="white"/>
<path id="Vector_77" d="M511.538 675.22H503.619V681.555H511.538V675.22Z" fill="white"/>
<path id="Vector_78" d="M524.525 675.22H516.606V681.555H524.525V675.22Z" fill="white"/>
<path id="Vector_79" d="M537.513 675.22H529.594V681.555H537.513V675.22Z" fill="white"/>
<path id="Vector_80" d="M511.538 691.375H503.619V697.711H511.538V691.375Z" fill="white"/>
<path id="Vector_81" d="M524.525 691.375H516.606V697.711H524.525V691.375Z" fill="white"/>
<path id="Vector_82" d="M537.513 691.375H529.594V697.711H537.513V691.375Z" fill="white"/>
<path id="Vector_83" d="M511.538 707.53H503.619V713.866H511.538V707.53Z" fill="white"/>
<path id="Vector_84" d="M524.525 707.53H516.606V713.866H524.525V707.53Z" fill="white"/>
<path id="Vector_85" d="M511.538 723.685H503.619V730.021H511.538V723.685Z" fill="white"/>
<path id="Vector_86" d="M524.525 723.685H516.606V730.021H524.525V723.685Z" fill="white"/>
<path id="Vector_87" d="M511.538 739.84H503.619V746.176H511.538V739.84Z" fill="white"/>
<path id="Vector_88" d="M524.525 739.84H516.606V746.176H524.525V739.84Z" fill="white"/>
<path id="Vector_89" d="M511.538 755.995H503.619V762.331H511.538V755.995Z" fill="white"/>
<path id="Vector_90" d="M537.513 755.995H529.594V762.331H537.513V755.995Z" fill="white"/>
<path id="Vector_91" d="M478.497 619.311H452.839V621.212H478.497V619.311Z" fill="white"/>
<path id="Vector_92" d="M478.497 631.031H452.839V632.932H478.497V631.031Z" fill="white"/>
<path id="Vector_93" d="M478.497 642.752H452.839V644.652H478.497V642.752Z" fill="white"/>
<path id="Vector_94" d="M478.497 654.472H452.839V656.373H478.497V654.472Z" fill="white"/>
<path id="Vector_95" d="M478.497 666.192H452.839V668.093H478.497V666.192Z" fill="white"/>
<path id="Vector_96" d="M478.497 677.913H452.839V679.813H478.497V677.913Z" fill="white"/>
<path id="Vector_97" d="M478.497 689.633H452.839V691.534H478.497V689.633Z" fill="white"/>
<path id="Vector_98" d="M478.497 701.353H452.839V703.254H478.497V701.353Z" fill="white"/>
<path id="Vector_99" d="M478.497 713.074H452.839V714.974H478.497V713.074Z" fill="white"/>
<path id="Vector_100" d="M478.497 724.794H452.839V726.695H478.497V724.794Z" fill="white"/>
<path id="Vector_101" d="M478.497 736.514H452.839V738.415H478.497V736.514Z" fill="white"/>
<path id="Vector_102" d="M478.497 748.235H452.839V750.135H478.497V748.235Z" fill="white"/>
<path id="Vector_103" d="M463.292 593.019H455.373V599.355H463.292V593.019Z" fill="white"/>
</g>
<g id="right-leg">
<path id="Vector_104" d="M596.349 782.824L591.639 774.244L593.959 773.153L595.809 772.274L603.879 768.464L608.729 766.174L610.729 765.224L612.319 764.474L614.959 768.464L616.289 770.474L616.489 770.774V770.784C616.448 770.8 616.407 770.82 616.369 770.843C616.339 770.863 616.319 770.874 616.289 770.894C615.369 771.484 614.459 772.064 613.529 772.644C613.249 772.834 612.969 773.004 612.689 773.173C612.199 773.484 611.699 773.794 611.199 774.104C610.709 774.403 610.209 774.714 609.709 775.014C607.719 776.234 605.709 777.433 603.699 778.613C603.199 778.913 602.689 779.203 602.179 779.504C601.679 779.794 601.169 780.084 600.659 780.374V780.403L600.599 780.413L600.579 780.423L600.559 780.443H600.549C599.149 781.244 597.759 782.044 596.349 782.824Z" fill="#2F2E41"/>
<path id="Vector_105" d="M612.689 773.173C611.699 773.794 610.709 774.403 609.709 775.014C607.719 776.234 605.709 777.433 603.699 778.613C602.689 779.203 601.669 779.794 600.659 780.374V780.403L600.599 780.413L600.579 780.423L599.039 780.804L596.829 774.964L595.809 772.274L594.369 768.464L591.729 761.494L577.829 724.794L599.439 719.464L600.249 722.774H600.259L600.659 724.413L608.209 755.034L609.75 761.294L609.799 761.483L610.729 765.224L611.529 768.464L612.419 772.084L612.689 773.173Z" fill="#FFB6B6"/>
<path id="Vector_106" d="M743.267 628.725C743.257 628.695 743.237 628.585 743.207 628.415L743.177 628.305C743.107 627.945 743.027 627.545 742.937 627.105C740.897 616.973 738.276 606.967 735.087 597.135C733.198 591.115 730.695 585.304 727.617 579.795C727.517 579.615 727.407 579.435 727.297 579.255L726.927 578.655L723.817 579.795L723.697 579.835L676.417 597.165L662.747 602.175L662.317 602.335L659.987 611.835L627.297 607.605L600.657 604.155L593.007 603.165C589.691 602.733 586.322 602.965 583.096 603.847C579.87 604.73 576.852 606.245 574.217 608.305C571.468 610.437 569.17 613.094 567.459 616.123C565.747 619.151 564.655 622.491 564.247 625.945C564.147 626.705 564.087 627.475 564.057 628.235L561.747 714.405V714.515L562.817 716.655L585.167 761.495H600.657L609.797 761.485H617.227L601.777 722.395L602.127 721.865C603.581 719.637 604.497 717.101 604.804 714.459C605.112 711.816 604.801 709.138 603.897 706.635L605.637 701.595C609.247 691.185 607.537 686.185 605.377 679.865C603.437 674.726 602.297 669.32 601.997 663.835L601.637 656.705C610.707 658.295 619.157 660.065 627.297 661.845C630.017 662.435 632.711 663.032 635.377 663.635C642.967 665.325 650.297 666.955 657.477 668.315C672.017 671.085 685.947 672.775 700.257 671.725C700.537 671.705 700.817 671.685 701.097 671.655C704.577 671.375 708.077 670.925 711.617 670.295C713.607 669.935 715.607 669.525 717.627 669.045C718.187 668.905 718.757 668.765 719.317 668.625C720.872 668.215 722.37 667.614 723.777 666.835C725.779 665.718 727.641 664.369 729.327 662.815C729.337 662.805 729.347 662.805 729.347 662.795C732.107 658.875 734.797 654.895 737.417 650.855C738.827 648.685 740.227 646.495 741.597 644.295C743.597 638.805 744.357 633.265 743.267 628.725Z" fill="#2F2E41"/>
</g>
<path id="head" d="M644.122 423.666C661.993 423.666 676.48 408.856 676.48 390.586C676.48 372.317 661.993 357.507 644.122 357.507C626.251 357.507 611.763 372.317 611.763 390.586C611.763 408.856 626.251 423.666 644.122 423.666Z" fill="#FFB6B6"/>
<path id="body" d="M720.957 566.965C720.907 566.595 720.847 566.225 720.767 565.855C719.997 561.795 717.997 557.815 716.067 553.955C714.227 550.275 712.477 546.795 711.757 543.335C711.047 539.925 711.467 536.505 711.877 533.205C712.317 529.625 712.777 525.925 711.747 522.335C706.523 504.001 699.349 486.28 690.347 469.475C688.076 462.086 683.722 455.509 677.806 450.532C671.891 445.555 664.666 442.389 656.997 441.415C657.892 439.743 658.265 437.841 658.067 435.955C657.942 434.737 657.576 433.555 656.991 432.479C656.405 431.402 655.612 430.453 654.657 429.685C653.74 428.946 652.685 428.396 651.554 428.067C650.423 427.737 649.238 427.635 648.067 427.765L633.027 429.455C630.616 429.758 628.422 431 626.922 432.912C625.422 434.824 624.737 437.251 625.017 439.665C625.101 440.408 625.269 441.14 625.517 441.845C611.557 459.625 604.387 475.825 603.727 491.145V491.155C603.647 492.925 603.657 494.697 603.757 496.465C604.073 502.185 605.316 507.815 607.437 513.135C609.941 519.282 613.294 525.048 617.397 530.265C618.237 531.325 619.107 532.365 620.007 533.385C620.847 534.385 621.787 535.435 622.827 536.535L625.457 540.655L627.907 544.505L641.007 574.735L647.677 574.515L648.607 581.165L648.827 582.715L653.147 598.185L653.467 599.345L659.377 596.535L694.637 579.795L720.997 567.275L720.957 566.965Z" fill="#6C63FF"/>
<g id="right-hand">
<path id="Vector_107" d="M557.572 535.014C559.514 538.167 562.612 540.437 566.204 541.338C569.796 542.239 573.598 541.701 576.798 539.837C577.442 539.448 578.052 539.005 578.623 538.515L621.664 563.215L619.794 537.86L579.209 518.292C577 516.073 574.118 514.65 571.014 514.246C567.91 513.842 564.76 514.479 562.057 516.058C558.963 517.915 556.734 520.926 555.86 524.427C554.986 527.929 555.538 531.634 557.396 534.728C557.453 534.824 557.512 534.919 557.572 535.014Z" fill="#FFB6B6"/>
<path id="Vector_108" d="M603.159 553.914L610.767 558.551L644.937 579.387C647.179 580.79 649.677 581.738 652.286 582.176C654.895 582.615 657.565 582.535 660.143 581.941C662.722 581.347 665.158 580.252 667.313 578.716C669.468 577.181 671.299 575.237 672.702 572.994L672.713 572.976C675.243 568.808 676.138 563.85 675.226 559.06L660.039 483.187C659.478 480.208 658.281 477.386 656.529 474.913C654.776 472.44 652.511 470.374 649.887 468.857C647.263 467.34 644.342 466.408 641.325 466.124C638.307 465.839 635.264 466.21 632.403 467.21C627.594 468.9 623.609 472.359 621.26 476.882C618.91 481.406 618.372 486.655 619.756 491.561L635.636 545.407L611.294 534.058L603.159 553.914Z" fill="#6C63FF"/>
<path id="Vector_109" opacity="0.2" d="M607.833 512.975C610.84 520.339 615.066 527.144 620.335 533.103C621.237 534.18 622.19 535.239 623.188 536.299L628.306 544.331C647.176 530.188 662.464 474.499 662.464 474.499L641.174 470.357L607.833 512.975Z" fill="black"/>
</g>
<g id="laft-hand">
<path id="Vector_110" d="M594.944 426.756C596.808 429.959 597.349 433.762 596.452 437.357C595.555 440.952 593.29 444.056 590.14 446.007C589.494 446.393 588.816 446.725 588.115 447L589.622 496.603L568.141 483.081L570.003 438.05C569.089 435.054 569.193 431.839 570.298 428.907C571.404 425.976 573.448 423.493 576.113 421.846C579.194 419.982 582.889 419.419 586.385 420.279C589.881 421.14 592.892 423.354 594.755 426.435C594.82 426.541 594.882 426.648 594.944 426.756Z" fill="#FFB6B6"/>
<path id="Vector_111" d="M591.51 477.88L567.888 481.239L568.903 530.157C568.962 533.647 569.912 537.063 571.664 540.082C573.415 543.101 575.909 545.622 578.909 547.406C582.575 549.562 586.841 550.469 591.067 549.989C595.292 549.509 599.247 547.669 602.336 544.746L658.105 491.103C662.029 487.381 664.378 482.296 664.668 476.896C664.957 471.495 663.167 466.188 659.664 462.067C656.231 458.004 651.326 455.471 646.026 455.025C640.726 454.58 635.466 456.257 631.403 459.69C631.244 459.824 631.087 459.961 630.932 460.1C630.381 460.593 629.857 461.115 629.362 461.664L592.537 504.028L591.51 477.88Z" fill="#6C63FF"/>
</g>
<g id="left-leg">
<path id="Vector_112" d="M521.418 782.347L507.804 775.836L526.505 718.931L546.598 728.541L521.418 782.347Z" fill="#FFB6B6"/>
<path id="Vector_113" d="M743.597 612.535C743.447 611.895 743.257 611.245 743.057 610.615C741.47 605.844 739.62 601.163 737.517 596.595C735.157 591.395 732.327 585.825 728.957 579.795C727.327 576.875 725.574 573.839 723.697 570.685C722.757 569.105 721.78 567.495 720.767 565.855C720.728 565.78 720.684 565.706 720.637 565.635L720.347 565.155L673.567 571.415L656.147 573.745L655.107 582.425L654.857 584.575C654.847 584.575 654.847 584.575 654.857 584.585L654.157 590.445V590.455L653.227 598.195L653.147 598.185L627.297 594.835L600.657 591.385L586.347 589.535C583.031 589.103 579.662 589.335 576.436 590.217C573.21 591.1 570.192 592.615 567.557 594.675C564.808 596.807 562.51 599.464 560.799 602.493C559.087 605.521 557.995 608.861 557.587 612.315C557.497 613.015 557.437 613.735 557.407 614.445L543.907 646.435C535.829 665.567 530.684 685.808 528.647 706.475L518.747 738.125L520.157 738.255L541.137 740.205L546.677 740.725L558.877 722.915C560.267 720.885 561.587 718.795 562.817 716.655C564.842 713.16 566.643 709.539 568.207 705.815L594.597 643.015C596.637 643.365 598.657 643.699 600.657 644.015C609.907 645.515 618.787 646.739 627.297 647.685C654.967 650.775 678.927 651.015 700.257 648.395C706.247 647.665 712.037 646.705 717.627 645.515C719.677 645.085 721.7 644.622 723.697 644.125C724.167 644.015 724.627 643.905 725.087 643.785C729.22 642.719 733.019 640.634 736.138 637.72C739.256 634.806 741.594 631.156 742.937 627.105C744.541 622.411 744.77 617.356 743.597 612.535Z" fill="#2F2E41"/>
<path id="Vector_114" d="M525.767 773.055L511.037 765.995L508.727 764.885L505.037 773.945L479.277 779.615C478.003 779.894 476.852 780.574 475.992 781.554C475.132 782.534 474.608 783.763 474.496 785.062C474.384 786.361 474.691 787.662 475.371 788.775C476.052 789.887 477.07 790.753 478.277 791.245L503.447 801.515L511.437 794.325L509.477 803.975L518.957 807.845L529.347 774.775L525.767 773.055Z" fill="#2F2E41"/>
</g>
<path id="hair" d="M730.71 376.24C725.209 369.826 722.594 361.316 718.197 354.032C713.8 346.748 706.149 340.229 698.065 341.924C692.493 343.093 688.186 348.01 686.006 353.492C683.826 358.974 683.418 365.02 683.036 370.942C683.171 358.771 675.152 346.972 664.106 343.088C653.061 339.205 639.842 343.537 632.901 353.315C629.872 350.507 625.918 348.909 621.789 348.822C617.66 348.736 613.643 350.167 610.499 352.845C604.291 358.393 602.917 368.954 607.483 376.032C612.049 383.11 621.937 385.746 629.192 381.821L631.758 384.18C630.314 389.231 633.114 395.196 637.821 397.097C641.638 398.639 647.026 398.382 648.454 402.388C649.453 405.186 647.587 408.174 645.602 410.325C643.618 412.475 641.262 414.696 641.024 417.672C640.664 422.163 645.304 425.308 649.523 426.256C659.694 428.54 670.98 423.83 676.842 414.853C676.955 414.68 677.078 414.507 677.211 414.333C680.5 410.127 682.897 405.295 684.255 400.131C685.614 394.967 685.905 389.58 685.112 384.3C684.782 382.225 685.114 380.682 686.544 380.191C692.727 378.067 710.049 382.524 715.291 386.553C720.534 390.581 724.732 395.912 729.781 400.201C734.831 404.489 741.266 407.797 747.677 406.629C752.812 405.694 757.181 401.966 760.119 397.469C763.057 392.972 764.748 387.731 766.263 382.522C754.908 389.081 739.367 386.335 730.71 376.24Z" fill="#2F2E41"/>
<path id="table" d="M628.569 762.744V762.964L628.289 762.934C627.959 763.174 627.629 763.394 627.299 763.624C624.909 765.264 622.499 766.877 620.069 768.464C618.879 769.244 617.689 770.014 616.489 770.774V770.784C616.479 770.784 616.469 770.794 616.459 770.794H616.449L616.429 770.814L616.369 770.843C616.339 770.863 616.319 770.874 616.289 770.894V586.034C616.289 580.673 614.489 576.324 612.279 576.314H445.789C443.569 576.324 441.779 580.673 441.769 586.034V831.494C439.549 831.714 437.329 831.924 435.109 832.104C435.069 832.104 435.029 832.113 434.989 832.113C434.109 832.194 433.229 832.254 432.349 832.324H432.339C431.809 831.343 431.289 830.354 430.769 829.354V573.423C430.769 571.943 430.829 570.453 430.929 568.984C431.072 566.965 431.323 564.955 431.679 562.964C433.369 553.674 437.189 547.383 441.529 547.363H616.529C617.163 547.368 617.789 547.5 618.369 547.754C619.222 548.131 619.993 548.671 620.639 549.343C621.517 550.255 622.267 551.281 622.869 552.394C625.009 556.164 626.539 561.784 627.079 568.324C627.079 568.383 627.089 568.444 627.089 568.504C627.229 570.124 627.299 571.774 627.289 573.424L627.429 594.854L627.519 607.633L627.789 647.734L627.889 661.974L628.569 762.744Z" fill="#2F2E41"/>
<g id="monitor">
<path id="Vector_115" d="M497.613 487.911L486.032 538.866L478.632 546.972H473.293L495.297 454.326L496.385 470.065V470.076L497.613 487.911Z" fill="#2F2E41"/>
<path id="Vector_116" d="M553.347 539.985L485.407 539.555L479.377 539.515L475.077 539.485L470.067 539.455H470.027C469.3 539.457 468.603 539.744 468.087 540.255L459.627 548.715C459.44 548.9 459.287 549.117 459.177 549.355C459.124 549.423 459.081 549.497 459.047 549.575C458.864 550.001 458.788 550.465 458.827 550.926C458.865 551.388 459.017 551.833 459.268 552.222C459.518 552.611 459.861 552.933 460.266 553.158C460.67 553.384 461.124 553.506 461.587 553.515H549.597C550.125 553.513 550.642 553.362 551.088 553.079C551.534 552.796 551.891 552.393 552.117 551.915L552.807 550.415L554.227 547.365L555.837 543.925C556.009 543.559 556.098 543.16 556.097 542.755C556.093 542.025 555.803 541.326 555.289 540.808C554.774 540.29 554.077 539.994 553.347 539.985Z" fill="#2F2E41"/>
<path id="Vector_117" opacity="0.17" d="M552.807 550.413L552.112 551.918C551.886 552.394 551.53 552.797 551.086 553.079C550.641 553.362 550.126 553.514 549.599 553.517H461.586C461.123 553.508 460.669 553.386 460.265 553.161C459.86 552.935 459.518 552.614 459.267 552.224C459.016 551.835 458.865 551.39 458.827 550.929C458.789 550.468 458.866 550.004 459.049 549.579C459.08 549.5 459.123 549.425 459.177 549.359L552.807 550.413Z" fill="black"/>
<path id="Vector_118" opacity="0.17" d="M496.385 470.065V470.076L477.543 546.972H473.293L495.297 454.326L496.385 470.065Z" fill="black"/>
<path id="Vector_119" d="M519.507 484.155L492.837 281.245C492.74 280.485 492.344 279.794 491.737 279.325L473.377 256.345L471.727 255.075C471.116 254.613 470.348 254.408 469.587 254.505L466.827 254.875C466.066 254.973 465.375 255.37 464.906 255.978C464.437 256.585 464.229 257.354 464.327 258.115L491.967 468.355V468.365L493.657 481.225L495.667 496.495V496.515L498.787 520.275C498.837 520.682 498.974 521.074 499.19 521.423C499.406 521.771 499.695 522.069 500.037 522.295C500.373 522.527 500.755 522.684 501.157 522.756C501.559 522.829 501.971 522.815 502.367 522.715L504.117 522.275C504.788 522.103 505.375 521.699 505.777 521.135L506.557 520.025L506.917 519.505L518.997 486.205C519.421 485.611 519.603 484.879 519.507 484.155Z" fill="#2F2E41"/>
<path id="Vector_120" opacity="0.17" d="M473.373 256.346L506.92 519.51L506.556 520.025L505.779 521.132C505.377 521.696 504.789 522.1 504.118 522.272L502.366 522.713C501.969 522.811 501.556 522.825 501.154 522.753C500.751 522.681 500.369 522.524 500.031 522.294C499.693 522.064 499.408 521.765 499.193 521.417C498.979 521.069 498.84 520.68 498.786 520.275L464.331 258.118C464.232 257.357 464.438 256.587 464.906 255.978C465.373 255.369 466.063 254.971 466.825 254.871L469.592 254.507C469.967 254.456 470.349 254.481 470.715 254.579C471.081 254.677 471.423 254.848 471.723 255.08L473.373 256.346Z" fill="black"/>
</g>
<path id="display" d="M474.361 263.872L492.164 289.283L513.324 450.284L501.852 473.043L474.361 263.872Z" fill="#6C63FF"/>
<g id="chair">
<path id="Vector_121" d="M716.859 670.294V679.613C715.419 681.453 713.959 683.294 712.479 685.104C712.159 685.504 711.839 685.894 711.529 686.284C711.039 686.874 710.559 687.464 710.079 688.044C709.919 688.244 709.759 688.433 709.589 688.633C708.769 689.613 707.949 690.593 707.109 691.574C707.109 691.574 707.119 691.584 707.109 691.584C706.299 692.544 705.479 693.504 704.649 694.464C704.199 694.994 703.739 695.514 703.269 696.044C702.579 696.854 701.869 697.653 701.149 698.453C701.139 698.463 701.14 698.474 701.13 698.484L701.099 698.513V670.294L716.859 670.294Z" fill="#2F2E41"/>
<path id="Vector_122" d="M737.419 650.854C734.799 654.894 732.109 658.874 729.349 662.794C729.349 662.804 729.339 662.804 729.329 662.814C727.679 665.174 725.989 667.514 724.289 669.834C723.199 671.314 722.099 672.787 720.989 674.254C719.879 675.724 718.759 677.18 717.629 678.624C717.379 678.954 717.119 679.284 716.859 679.613C715.419 681.454 713.959 683.294 712.479 685.104C712.159 685.504 711.839 685.894 711.529 686.284C711.039 686.874 710.559 687.464 710.079 688.044C709.909 688.244 709.749 688.434 709.589 688.633C708.769 689.613 707.949 690.593 707.109 691.574C707.109 691.574 707.119 691.584 707.109 691.584C706.299 692.544 705.479 693.504 704.649 694.464C704.199 694.993 703.739 695.514 703.269 696.044H670.619C667.135 696.041 663.794 694.656 661.331 692.192C658.867 689.729 657.482 686.388 657.479 682.903V663.994C657.483 660.51 658.869 657.17 661.333 654.707C663.796 652.243 667.136 650.858 670.619 650.854H737.419Z" fill="#2F2E41"/>
<path id="Vector_123" d="M754.687 488.995C752.68 488.302 750.571 487.951 748.447 487.955H743.077C741.121 487.957 739.176 488.25 737.307 488.825C733.364 490.064 729.919 492.528 727.472 495.858C725.024 499.189 723.702 503.212 723.697 507.345V665.095C723.697 665.685 723.727 666.265 723.777 666.835C723.864 667.848 724.035 668.851 724.287 669.835C725.987 667.515 727.677 665.175 729.327 662.815C729.337 662.805 729.347 662.805 729.347 662.795C732.107 658.875 734.797 654.895 737.417 650.855C738.827 648.685 740.227 646.495 741.597 644.295C751.497 628.412 760.265 611.851 767.837 594.735V507.345C767.833 503.297 766.563 499.352 764.205 496.062C761.847 492.771 758.519 490.3 754.687 488.995Z" fill="#2F2E41"/>
<path id="Vector_124" d="M743.099 588.474C743.099 590.232 742.566 591.95 741.57 593.4C740.573 594.849 739.161 595.963 737.519 596.593C736.741 596.892 735.922 597.074 735.089 597.133C734.869 597.153 734.639 597.163 734.419 597.163H717.629V678.624C717.379 678.953 717.119 679.284 716.859 679.613C715.419 681.453 713.959 683.294 712.479 685.104C712.159 685.503 711.839 685.894 711.529 686.284C711.039 686.874 710.559 687.463 710.079 688.044C709.909 688.243 709.749 688.433 709.589 688.633C708.769 689.613 707.949 690.593 707.109 691.574C707.109 691.574 707.119 691.584 707.109 691.584C706.299 692.544 705.479 693.504 704.649 694.463C703.135 693.618 701.914 692.331 701.149 690.773C701.139 690.763 701.139 690.754 701.129 690.734C701.118 690.711 701.108 690.688 701.1 690.663C700.538 689.493 700.251 688.211 700.259 686.913V597.163H662.619C661.508 597.17 660.407 596.956 659.379 596.534C658.084 596.016 656.932 595.193 656.023 594.134C655.114 593.076 654.475 591.813 654.16 590.453V590.443C653.691 588.469 653.939 586.392 654.86 584.584C654.85 584.574 654.85 584.574 654.86 584.574C655.251 583.783 655.768 583.06 656.389 582.433C656.389 582.423 656.389 582.423 656.399 582.413C657.21 581.585 658.177 580.926 659.245 580.476C660.313 580.027 661.461 579.794 662.619 579.794H734.42C736.721 579.795 738.928 580.71 740.556 582.337C742.183 583.965 743.098 586.172 743.099 588.474Z" fill="#2F2E41"/>
<path id="Vector_125" d="M742.522 421.137C738.949 421.137 735.41 421.841 732.108 423.209C728.806 424.577 725.806 426.581 723.279 429.108C720.752 431.635 718.747 434.636 717.379 437.937C716.012 441.239 715.308 444.778 715.308 448.352C715.309 454.665 717.504 460.782 721.518 465.654C725.532 470.527 731.115 473.853 737.311 475.063V519.573H754.682V421.137H742.522Z" fill="#2F2E41"/>
</g>
<path id="hoop" d="M632.547 351.85C639.983 361.723 649.705 385.57 646.17 397.414L632.547 351.85Z" fill="#FD6584"/>
</g>
<defs>
<clipPath id="clip0_1_2">
<rect width="802.001" height="833.54" fill="white"/>
</clipPath>
</defs>
</svg>
